# WaveFront *.obj file (generated by Autodesk ATF)

mtllib box2.mtl

g Solid1

v 0.000000 0.000000 0.000000
v 0.000000 0.000000 10.000000
v 0.000000 10.000000 0.000000
v 0.000000 10.000000 10.000000
v 10.000000 0.000000 0.000000
v 10.000000 0.000000 10.000000
v 10.000000 10.000000 0.000000
v 10.000000 10.000000 10.000000
vt 0.000000 0.000000 0.000000
vt 1.000000 0.000000 0.000000
vt 1.000000 1.000000 0.000000
vt 0.000000 1.000000 0.000000
vt 0.000000 0.000000 0.000000
vt 1.000000 0.000000 0.000000
vt 1.000000 1.000000 0.000000
vt 0.000000 1.000000 0.000000
vt 0.000000 0.000000 0.000000
vt 1.000000 0.000000 0.000000
vt 1.000000 1.000000 0.000000
vt 0.000000 1.000000 0.000000
vt 0.000000 0.000000 0.000000
vt 1.000000 0.000000 0.000000
vt 1.000000 1.000000 0.000000
vt 0.000000 1.000000 0.000000
vt 0.500000 -0.500000 0.000000
vt 0.500000 0.500000 0.000000
vt -0.500000 0.500000 0.000000
vt -0.500000 -0.500000 0.000000
vt -0.500000 0.500000 0.000000
vt -0.500000 -0.500000 0.000000
vt 0.500000 -0.500000 0.000000
vt 0.500000 0.500000 0.000000
vn 0.000000 -0.100000 0.000000
vn 0.000000 -0.100000 0.000000
vn 0.000000 -0.100000 0.000000
vn 0.000000 -0.100000 0.000000
vn -0.100000 0.000000 0.000000
vn -0.100000 0.000000 0.000000
vn -0.100000 0.000000 0.000000
vn -0.100000 0.000000 0.000000
vn 0.000000 0.100000 0.000000
vn 0.000000 0.100000 0.000000
vn 0.000000 0.100000 0.000000
vn 0.000000 0.100000 0.000000
vn 0.100000 0.000000 0.000000
vn 0.100000 0.000000 0.000000
vn 0.100000 0.000000 0.000000
vn 0.100000 0.000000 0.000000
vn 0.000000 0.000000 0.100000
vn 0.000000 0.000000 0.100000
vn 0.000000 0.000000 0.100000
vn 0.000000 0.000000 0.100000
vn 0.000000 0.000000 -0.100000
vn 0.000000 0.000000 -0.100000
vn 0.000000 0.000000 -0.100000
vn 0.000000 0.000000 -0.100000
usemtl 191,191,191
f 1/1/1 5/2/2 2/4/4
f 2/4/4 5/2/2 6/3/3
f 3/5/5 1/6/6 4/8/8
f 4/8/8 1/6/6 2/7/7
f 7/9/9 3/10/10 8/12/12
f 8/12/12 3/10/10 4/11/11
f 5/13/13 7/14/14 6/16/16
f 6/16/16 7/14/14 8/15/15
usemtl 254,30,30
f 8/18/18 4/19/19 6/17/17
f 6/17/17 4/19/19 2/20/20
usemtl 191,191,191
f 5/22/22 1/23/23 7/21/21
f 7/21/21 1/23/23 3/24/24
# 8 vertices
# 24 texture params
# 24 normals
# 12 facets

# 1 groups
